<svg width="11" height="16" viewBox="0 0 11 16" fill="none" xmlns="http://www.w3.org/2000/svg">
<path d="M4.27778 9.90438V14.8009L5.11882 15.8328C5.30024 16.0553 5.70014 16.0553 5.88156 15.8328L6.72222 14.8009V9.90438C6.32538 9.96438 5.91785 10 5.5 10C5.08215 10 4.67462 9.96438 4.27778 9.90438ZM5.5 0C2.4624 0 0 2.01469 0 4.5C0 6.98531 2.4624 9 5.5 9C8.5376 9 11 6.98531 11 4.5C11 2.01469 8.5376 0 5.5 0ZM5.5 2.375C4.06771 2.375 2.90278 3.32812 2.90278 4.5C2.90278 4.70687 2.69729 4.875 2.44444 4.875C2.1916 4.875 1.98611 4.70687 1.98611 4.5C1.98611 2.91469 3.56278 1.625 5.5 1.625C5.75285 1.625 5.95833 1.79313 5.95833 2C5.95833 2.20688 5.75285 2.375 5.5 2.375Z" fill="#526275"/>
</svg>
