<svg width="16" height="16" viewBox="0 0 16 16" fill="none" xmlns="http://www.w3.org/2000/svg">
<path d="M10.25 8C10.25 9.24375 9.24375 10.25 8 10.25C6.75625 10.25 5.75 9.24375 5.75 8C5.75 6.75625 6.75625 5.75 8 5.75C9.24375 5.75 10.25 6.75625 10.25 8ZM13.5 5.75C12.2563 5.75 11.25 6.75625 11.25 8C11.25 9.24375 12.2563 10.25 13.5 10.25C14.7437 10.25 15.75 9.24375 15.75 8C15.75 6.75625 14.7437 5.75 13.5 5.75ZM2.5 5.75C1.25625 5.75 0.25 6.75625 0.25 8C0.25 9.24375 1.25625 10.25 2.5 10.25C3.74375 10.25 4.75 9.24375 4.75 8C4.75 6.75625 3.74375 5.75 2.5 5.75Z" fill="#526275"/>
</svg>
